# xmcd CD database file
#
# Track frame offsets:
#	150
#	14662
#	34943
#	49394
#	65375
#	82018
#	95748
#	112234
#
# Disc length: 1652 seconds
#
# Revision: 0
# Processed by: cddbd v1.5.2PL0 Copyright (c) Steve Scherf et al.
# Submitted via: CDex 1.70beta3
#
DISCID=74067208
DTITLE=Bob Hardaway - Lou's Blue
DYEAR=1955
DGENRE=Jazz
TTITLE0=Irresistible You
TTITLE1=Jr.
TTITLE2=Spring Is Here
TTITLE3=Lou's Blue
TTITLE4=Out Of Nowhere
TTITLE5=Deep Purple
TTITLE6=I Cover The Waterfront
TTITLE7=Indiana
EXTD=YEAR: 1955
EXTT0=
EXTT1=
EXTT2=
EXTT3=
EXTT4=
EXTT5=
EXTT6=
EXTT7=
PLAYORDER=
